<mxfile host="65bd71144e">
    <diagram id="V3ijUrjMEdLw47c3y2hR" name="Page-1">
        <mxGraphModel dx="129" dy="98" grid="1" gridSize="10" guides="1" tooltips="1" connect="1" arrows="1" fold="1" page="1" pageScale="1" pageWidth="827" pageHeight="1169" math="0" shadow="0">
            <root>
                <mxCell id="0"/>
                <mxCell id="1" parent="0"/>
                <mxCell id="3" value="INIT APP" style="whiteSpace=wrap;html=1;align=center;" parent="1" vertex="1">
                    <mxGeometry x="960" y="120" width="100" height="40" as="geometry"/>
                </mxCell>
                <mxCell id="4" value="MAIN:&lt;br&gt;DisplayMenu()" style="whiteSpace=wrap;html=1;align=center;" parent="1" vertex="1">
                    <mxGeometry x="960" y="210" width="100" height="40" as="geometry"/>
                </mxCell>
                <mxCell id="6" value="IF: Play Hangman game" style="ellipse;whiteSpace=wrap;html=1;align=center;" parent="1" vertex="1">
                    <mxGeometry x="690" y="318" width="100" height="40" as="geometry"/>
                </mxCell>
                <mxCell id="7" value="IF:&amp;nbsp;Add word" style="ellipse;whiteSpace=wrap;html=1;align=center;" parent="1" vertex="1">
                    <mxGeometry x="830" y="318" width="100" height="40" as="geometry"/>
                </mxCell>
                <mxCell id="8" value="IF:&amp;nbsp;Display players" style="ellipse;whiteSpace=wrap;html=1;align=center;" parent="1" vertex="1">
                    <mxGeometry x="960" y="318" width="100" height="40" as="geometry"/>
                </mxCell>
                <mxCell id="20" value="" style="edgeStyle=none;html=1;" parent="1" source="9" target="18" edge="1">
                    <mxGeometry relative="1" as="geometry"/>
                </mxCell>
                <mxCell id="9" value="IF:&amp;nbsp;Rules" style="ellipse;whiteSpace=wrap;html=1;align=center;" parent="1" vertex="1">
                    <mxGeometry x="1090" y="318" width="100" height="40" as="geometry"/>
                </mxCell>
                <mxCell id="10" value="IF:&amp;nbsp;Quit app" style="ellipse;whiteSpace=wrap;html=1;align=center;" parent="1" vertex="1">
                    <mxGeometry x="1230" y="318" width="100" height="40" as="geometry"/>
                </mxCell>
                <mxCell id="12" value="EXIT APP" style="whiteSpace=wrap;html=1;align=center;" parent="1" vertex="1">
                    <mxGeometry x="950" y="2610" width="100" height="40" as="geometry"/>
                </mxCell>
                <mxCell id="13" value="ViewPlayers()" style="whiteSpace=wrap;html=1;align=center;" parent="1" vertex="1">
                    <mxGeometry x="960" y="408" width="100" height="40" as="geometry"/>
                </mxCell>
                <mxCell id="15" value="" style="endArrow=classic;html=1;entryX=0.5;entryY=0;entryDx=0;entryDy=0;exitX=0.5;exitY=1;exitDx=0;exitDy=0;" parent="1" source="8" target="13" edge="1">
                    <mxGeometry width="50" height="50" relative="1" as="geometry">
                        <mxPoint x="1010" y="378" as="sourcePoint"/>
                        <mxPoint x="1040" y="498" as="targetPoint"/>
                    </mxGeometry>
                </mxCell>
                <mxCell id="16" value="" style="endArrow=classic;html=1;entryX=0.985;entryY=0.643;entryDx=0;entryDy=0;entryPerimeter=0;exitX=0.5;exitY=1;exitDx=0;exitDy=0;" parent="1" source="167" target="12" edge="1">
                    <mxGeometry width="50" height="50" relative="1" as="geometry">
                        <mxPoint x="1330" y="480" as="sourcePoint"/>
                        <mxPoint x="1050" y="1350" as="targetPoint"/>
                        <Array as="points">
                            <mxPoint x="1280" y="490"/>
                            <mxPoint x="1480" y="490"/>
                            <mxPoint x="1490" y="2636"/>
                        </Array>
                    </mxGeometry>
                </mxCell>
                <mxCell id="18" value="Rules()" style="whiteSpace=wrap;html=1;align=center;" parent="1" vertex="1">
                    <mxGeometry x="1090" y="408" width="100" height="40" as="geometry"/>
                </mxCell>
                <mxCell id="19" value="" style="endArrow=classic;html=1;entryX=0.5;entryY=0;entryDx=0;entryDy=0;exitX=0.5;exitY=1;exitDx=0;exitDy=0;" parent="1" target="18" edge="1">
                    <mxGeometry width="50" height="50" relative="1" as="geometry">
                        <mxPoint x="1140" y="358" as="sourcePoint"/>
                        <mxPoint x="1170" y="498" as="targetPoint"/>
                    </mxGeometry>
                </mxCell>
                <mxCell id="21" value="" style="endArrow=classic;html=1;entryX=0.5;entryY=0;entryDx=0;entryDy=0;exitX=0.5;exitY=1;exitDx=0;exitDy=0;" parent="1" source="3" target="4" edge="1">
                    <mxGeometry width="50" height="50" relative="1" as="geometry">
                        <mxPoint x="1030" y="180" as="sourcePoint"/>
                        <mxPoint x="1010" y="280" as="targetPoint"/>
                    </mxGeometry>
                </mxCell>
                <mxCell id="22" value="" style="endArrow=classic;html=1;exitX=0.5;exitY=1;exitDx=0;exitDy=0;entryX=0.5;entryY=0;entryDx=0;entryDy=0;" parent="1" source="7" target="23" edge="1">
                    <mxGeometry width="50" height="50" relative="1" as="geometry">
                        <mxPoint x="900" y="428" as="sourcePoint"/>
                        <mxPoint x="880" y="398" as="targetPoint"/>
                    </mxGeometry>
                </mxCell>
                <mxCell id="23" value="AddWord()" style="whiteSpace=wrap;html=1;align=center;" parent="1" vertex="1">
                    <mxGeometry x="830" y="408" width="100" height="40" as="geometry"/>
                </mxCell>
                <mxCell id="24" value="" style="endArrow=classic;html=1;exitX=0.5;exitY=1;exitDx=0;exitDy=0;entryX=0.5;entryY=0;entryDx=0;entryDy=0;" parent="1" target="25" edge="1">
                    <mxGeometry width="50" height="50" relative="1" as="geometry">
                        <mxPoint x="880" y="448" as="sourcePoint"/>
                        <mxPoint x="880" y="488" as="targetPoint"/>
                    </mxGeometry>
                </mxCell>
                <mxCell id="25" value="SaveWord()" style="whiteSpace=wrap;html=1;align=center;" parent="1" vertex="1">
                    <mxGeometry x="830" y="498" width="100" height="40" as="geometry"/>
                </mxCell>
                <mxCell id="26" value="" style="endArrow=classic;html=1;exitX=0.5;exitY=1;exitDx=0;exitDy=0;entryX=0.5;entryY=0;entryDx=0;entryDy=0;" parent="1" target="27" edge="1">
                    <mxGeometry width="50" height="50" relative="1" as="geometry">
                        <mxPoint x="740" y="357.9999999999999" as="sourcePoint"/>
                        <mxPoint x="740" y="398" as="targetPoint"/>
                    </mxGeometry>
                </mxCell>
                <mxCell id="27" value="DisplayAllUsers()" style="whiteSpace=wrap;html=1;align=center;" parent="1" vertex="1">
                    <mxGeometry x="690" y="408" width="100" height="40" as="geometry"/>
                </mxCell>
                <mxCell id="28" value="" style="endArrow=classic;html=1;exitX=0.5;exitY=1;exitDx=0;exitDy=0;entryX=0.5;entryY=0;entryDx=0;entryDy=0;" parent="1" target="29" edge="1">
                    <mxGeometry width="50" height="50" relative="1" as="geometry">
                        <mxPoint x="740" y="448" as="sourcePoint"/>
                        <mxPoint x="740" y="488" as="targetPoint"/>
                    </mxGeometry>
                </mxCell>
                <mxCell id="29" value="LoadUsers()" style="whiteSpace=wrap;html=1;align=center;" parent="1" vertex="1">
                    <mxGeometry x="690" y="499" width="100" height="40" as="geometry"/>
                </mxCell>
                <mxCell id="33" value="" style="endArrow=classic;html=1;exitX=0.5;exitY=1;exitDx=0;exitDy=0;entryX=0.5;entryY=0;entryDx=0;entryDy=0;" parent="1" target="39" edge="1">
                    <mxGeometry width="50" height="50" relative="1" as="geometry">
                        <mxPoint x="740" y="537.9999999999999" as="sourcePoint"/>
                        <mxPoint x="740" y="588" as="targetPoint"/>
                    </mxGeometry>
                </mxCell>
                <mxCell id="38" value="IF: New user" style="ellipse;whiteSpace=wrap;html=1;align=center;" parent="1" vertex="1">
                    <mxGeometry x="500" y="630" width="100" height="40" as="geometry"/>
                </mxCell>
                <mxCell id="39" value="ELSE IF: Existning user" style="ellipse;whiteSpace=wrap;html=1;align=center;" parent="1" vertex="1">
                    <mxGeometry x="690" y="630" width="100" height="40" as="geometry"/>
                </mxCell>
                <mxCell id="41" value="" style="endArrow=classic;html=1;exitX=0;exitY=0.5;exitDx=0;exitDy=0;entryX=0.5;entryY=0;entryDx=0;entryDy=0;" parent="1" source="29" target="38" edge="1">
                    <mxGeometry width="50" height="50" relative="1" as="geometry">
                        <mxPoint x="750" y="547.9999999999998" as="sourcePoint"/>
                        <mxPoint x="750" y="640" as="targetPoint"/>
                        <Array as="points">
                            <mxPoint x="550" y="520"/>
                        </Array>
                    </mxGeometry>
                </mxCell>
                <mxCell id="42" value="SelectedPlayer()" style="whiteSpace=wrap;html=1;align=center;" parent="1" vertex="1">
                    <mxGeometry x="690" y="920" width="100" height="40" as="geometry"/>
                </mxCell>
                <mxCell id="43" value="AddNewUser()" style="whiteSpace=wrap;html=1;align=center;" parent="1" vertex="1">
                    <mxGeometry x="500" y="730" width="100" height="40" as="geometry"/>
                </mxCell>
                <mxCell id="44" value="NewPlayerStoryIntro()" style="whiteSpace=wrap;html=1;align=center;" parent="1" vertex="1">
                    <mxGeometry x="500" y="920" width="100" height="40" as="geometry"/>
                </mxCell>
                <mxCell id="45" value="" style="endArrow=classic;html=1;exitX=0.5;exitY=1;exitDx=0;exitDy=0;entryX=0.5;entryY=0;entryDx=0;entryDy=0;" parent="1" source="38" target="43" edge="1">
                    <mxGeometry width="50" height="50" relative="1" as="geometry">
                        <mxPoint x="750" y="547.9999999999999" as="sourcePoint"/>
                        <mxPoint x="750" y="640" as="targetPoint"/>
                    </mxGeometry>
                </mxCell>
                <mxCell id="46" value="" style="endArrow=classic;html=1;exitX=0.5;exitY=1;exitDx=0;exitDy=0;entryX=0.5;entryY=0;entryDx=0;entryDy=0;" parent="1" source="43" target="49" edge="1">
                    <mxGeometry width="50" height="50" relative="1" as="geometry">
                        <mxPoint x="560" y="680" as="sourcePoint"/>
                        <mxPoint x="550" y="800" as="targetPoint"/>
                    </mxGeometry>
                </mxCell>
                <mxCell id="47" value="" style="endArrow=classic;html=1;exitX=0.5;exitY=1;exitDx=0;exitDy=0;" parent="1" source="39" target="42" edge="1">
                    <mxGeometry width="50" height="50" relative="1" as="geometry">
                        <mxPoint x="560" y="680" as="sourcePoint"/>
                        <mxPoint x="560" y="740" as="targetPoint"/>
                    </mxGeometry>
                </mxCell>
                <mxCell id="48" value="" style="endArrow=classic;html=1;exitX=1;exitY=0.5;exitDx=0;exitDy=0;entryX=0;entryY=0.5;entryDx=0;entryDy=0;" parent="1" source="44" target="42" edge="1">
                    <mxGeometry width="50" height="50" relative="1" as="geometry">
                        <mxPoint x="560" y="780" as="sourcePoint"/>
                        <mxPoint x="560" y="830" as="targetPoint"/>
                    </mxGeometry>
                </mxCell>
                <mxCell id="49" value="SaveUsers()" style="whiteSpace=wrap;html=1;align=center;" parent="1" vertex="1">
                    <mxGeometry x="500" y="820" width="100" height="40" as="geometry"/>
                </mxCell>
                <mxCell id="50" value="" style="endArrow=classic;html=1;exitX=0.5;exitY=1;exitDx=0;exitDy=0;entryX=0.5;entryY=0;entryDx=0;entryDy=0;" parent="1" source="49" target="44" edge="1">
                    <mxGeometry width="50" height="50" relative="1" as="geometry">
                        <mxPoint x="560" y="780" as="sourcePoint"/>
                        <mxPoint x="560" y="830" as="targetPoint"/>
                    </mxGeometry>
                </mxCell>
                <mxCell id="55" value="Loads all users to the list in DisplayAllUsers()" style="text;html=1;strokeColor=none;fillColor=none;align=center;verticalAlign=middle;whiteSpace=wrap;rounded=0;" parent="1" vertex="1">
                    <mxGeometry x="594" y="460" width="140" height="30" as="geometry"/>
                </mxCell>
                <mxCell id="56" value="if user select &quot;new user&quot;" style="text;html=1;strokeColor=none;fillColor=none;align=center;verticalAlign=middle;whiteSpace=wrap;rounded=0;" parent="1" vertex="1">
                    <mxGeometry x="460" y="570" width="80" height="30" as="geometry"/>
                </mxCell>
                <mxCell id="57" value="if user select an existing user" style="text;html=1;strokeColor=none;fillColor=none;align=center;verticalAlign=middle;whiteSpace=wrap;rounded=0;" parent="1" vertex="1">
                    <mxGeometry x="640" y="570" width="110" height="30" as="geometry"/>
                </mxCell>
                <mxCell id="58" value="PlayHangman()" style="whiteSpace=wrap;html=1;align=center;" parent="1" vertex="1">
                    <mxGeometry x="690" y="1020" width="100" height="40" as="geometry"/>
                </mxCell>
                <mxCell id="59" value="" style="endArrow=classic;html=1;exitX=0.5;exitY=1;exitDx=0;exitDy=0;entryX=0.5;entryY=0;entryDx=0;entryDy=0;" parent="1" source="42" target="58" edge="1">
                    <mxGeometry width="50" height="50" relative="1" as="geometry">
                        <mxPoint x="560" y="870" as="sourcePoint"/>
                        <mxPoint x="560" y="930" as="targetPoint"/>
                    </mxGeometry>
                </mxCell>
                <mxCell id="60" value="IF: Lives == 0 &amp;amp;&amp;amp; Money &amp;gt; 0" style="ellipse;whiteSpace=wrap;html=1;align=center;" parent="1" vertex="1">
                    <mxGeometry x="1230" y="1120" width="100" height="40" as="geometry"/>
                </mxCell>
                <mxCell id="61" value="IF: Lives &amp;lt;= 0 &amp;amp;&amp;amp; Money &amp;lt;= 0" style="ellipse;whiteSpace=wrap;html=1;align=center;" parent="1" vertex="1">
                    <mxGeometry x="464" y="1120" width="100" height="40" as="geometry"/>
                </mxCell>
                <mxCell id="62" value="OneLastChance()" style="whiteSpace=wrap;html=1;align=center;" parent="1" vertex="1">
                    <mxGeometry x="464" y="1230" width="100" height="40" as="geometry"/>
                </mxCell>
                <mxCell id="63" value="StartGameWithZeroLives()" style="whiteSpace=wrap;html=1;align=center;" parent="1" vertex="1">
                    <mxGeometry x="1230" y="1230" width="100" height="40" as="geometry"/>
                </mxCell>
                <mxCell id="64" value="IF: user gueeses right" style="ellipse;whiteSpace=wrap;html=1;align=center;" parent="1" vertex="1">
                    <mxGeometry x="310" y="1330" width="100" height="40" as="geometry"/>
                </mxCell>
                <mxCell id="65" value="IF: user gueeses wrong" style="ellipse;whiteSpace=wrap;html=1;align=center;" parent="1" vertex="1">
                    <mxGeometry x="460" y="1330" width="100" height="40" as="geometry"/>
                </mxCell>
                <mxCell id="66" value="RemoveUser()" style="whiteSpace=wrap;html=1;align=center;" parent="1" vertex="1">
                    <mxGeometry x="460" y="1430" width="100" height="40" as="geometry"/>
                </mxCell>
                <mxCell id="68" value="" style="endArrow=classic;html=1;exitX=0;exitY=0.5;exitDx=0;exitDy=0;entryX=0;entryY=0.5;entryDx=0;entryDy=0;" parent="1" source="64" target="4" edge="1">
                    <mxGeometry width="50" height="50" relative="1" as="geometry">
                        <mxPoint x="900" y="1070" as="sourcePoint"/>
                        <mxPoint x="850" y="780" as="targetPoint"/>
                        <Array as="points">
                            <mxPoint x="250" y="1350"/>
                            <mxPoint x="250" y="230"/>
                        </Array>
                    </mxGeometry>
                </mxCell>
                <mxCell id="69" value="ChooseDifficulty()" style="whiteSpace=wrap;html=1;align=center;" parent="1" vertex="1">
                    <mxGeometry x="690" y="1130" width="100" height="40" as="geometry"/>
                </mxCell>
                <mxCell id="70" value="ChooseCategory()" style="whiteSpace=wrap;html=1;align=center;" parent="1" vertex="1">
                    <mxGeometry x="690" y="1230" width="100" height="40" as="geometry"/>
                </mxCell>
                <mxCell id="72" value="" style="endArrow=classic;html=1;exitX=0;exitY=0.5;exitDx=0;exitDy=0;entryX=0;entryY=0.75;entryDx=0;entryDy=0;" parent="1" source="66" target="12" edge="1">
                    <mxGeometry width="50" height="50" relative="1" as="geometry">
                        <mxPoint x="1100" y="1650" as="sourcePoint"/>
                        <mxPoint x="1150" y="1600" as="targetPoint"/>
                        <Array as="points">
                            <mxPoint x="150" y="1450"/>
                            <mxPoint x="150" y="2640"/>
                        </Array>
                    </mxGeometry>
                </mxCell>
                <mxCell id="73" value="" style="endArrow=classic;html=1;exitX=1;exitY=0.5;exitDx=0;exitDy=0;entryX=0.5;entryY=0;entryDx=0;entryDy=0;" parent="1" source="58" target="60" edge="1">
                    <mxGeometry width="50" height="50" relative="1" as="geometry">
                        <mxPoint x="800" y="1180" as="sourcePoint"/>
                        <mxPoint x="850" y="1130" as="targetPoint"/>
                        <Array as="points">
                            <mxPoint x="990" y="1040"/>
                        </Array>
                    </mxGeometry>
                </mxCell>
                <mxCell id="74" value="" style="endArrow=classic;html=1;exitX=0;exitY=0.5;exitDx=0;exitDy=0;entryX=0.5;entryY=0;entryDx=0;entryDy=0;" parent="1" source="58" target="61" edge="1">
                    <mxGeometry width="50" height="50" relative="1" as="geometry">
                        <mxPoint x="800" y="1180" as="sourcePoint"/>
                        <mxPoint x="850" y="1130" as="targetPoint"/>
                        <Array as="points">
                            <mxPoint x="514" y="1040"/>
                        </Array>
                    </mxGeometry>
                </mxCell>
                <mxCell id="75" value="" style="endArrow=classic;html=1;exitX=0.5;exitY=1;exitDx=0;exitDy=0;entryX=0.5;entryY=0;entryDx=0;entryDy=0;" parent="1" source="61" target="62" edge="1">
                    <mxGeometry width="50" height="50" relative="1" as="geometry">
                        <mxPoint x="630" y="1310" as="sourcePoint"/>
                        <mxPoint x="680" y="1260" as="targetPoint"/>
                    </mxGeometry>
                </mxCell>
                <mxCell id="76" value="" style="endArrow=classic;html=1;exitX=0.5;exitY=1;exitDx=0;exitDy=0;entryX=0.5;entryY=0;entryDx=0;entryDy=0;" parent="1" source="62" target="64" edge="1">
                    <mxGeometry width="50" height="50" relative="1" as="geometry">
                        <mxPoint x="524" y="1169.9999999999998" as="sourcePoint"/>
                        <mxPoint x="524" y="1239.9999999999998" as="targetPoint"/>
                    </mxGeometry>
                </mxCell>
                <mxCell id="77" value="" style="endArrow=classic;html=1;exitX=0.5;exitY=1;exitDx=0;exitDy=0;entryX=0.5;entryY=0;entryDx=0;entryDy=0;" parent="1" source="62" target="65" edge="1">
                    <mxGeometry width="50" height="50" relative="1" as="geometry">
                        <mxPoint x="524" y="1280" as="sourcePoint"/>
                        <mxPoint x="450" y="1340" as="targetPoint"/>
                    </mxGeometry>
                </mxCell>
                <mxCell id="78" value="" style="endArrow=classic;html=1;exitX=0.5;exitY=1;exitDx=0;exitDy=0;entryX=0.5;entryY=0;entryDx=0;entryDy=0;" parent="1" source="65" target="66" edge="1">
                    <mxGeometry width="50" height="50" relative="1" as="geometry">
                        <mxPoint x="450" y="1290" as="sourcePoint"/>
                        <mxPoint x="460" y="1390" as="targetPoint"/>
                    </mxGeometry>
                </mxCell>
                <mxCell id="79" value="" style="endArrow=classic;html=1;exitX=0.5;exitY=1;exitDx=0;exitDy=0;entryX=0.5;entryY=0;entryDx=0;entryDy=0;" parent="1" source="58" target="69" edge="1">
                    <mxGeometry width="50" height="50" relative="1" as="geometry">
                        <mxPoint x="544" y="1300" as="sourcePoint"/>
                        <mxPoint x="470" y="1360" as="targetPoint"/>
                    </mxGeometry>
                </mxCell>
                <mxCell id="80" value="" style="endArrow=classic;html=1;exitX=0.5;exitY=1;exitDx=0;exitDy=0;entryX=0.5;entryY=0;entryDx=0;entryDy=0;" parent="1" source="69" target="70" edge="1">
                    <mxGeometry width="50" height="50" relative="1" as="geometry">
                        <mxPoint x="554" y="1310" as="sourcePoint"/>
                        <mxPoint x="480" y="1370" as="targetPoint"/>
                    </mxGeometry>
                </mxCell>
                <mxCell id="81" value="" style="endArrow=classic;html=1;exitX=0.5;exitY=1;exitDx=0;exitDy=0;entryX=0.5;entryY=0;entryDx=0;entryDy=0;" parent="1" source="60" target="63" edge="1">
                    <mxGeometry width="50" height="50" relative="1" as="geometry">
                        <mxPoint x="854" y="1320" as="sourcePoint"/>
                        <mxPoint x="780" y="1380" as="targetPoint"/>
                    </mxGeometry>
                </mxCell>
                <mxCell id="82" value="Gives the user opportunity to buy lives to be able to keep playing" style="text;html=1;strokeColor=none;fillColor=none;align=center;verticalAlign=middle;whiteSpace=wrap;rounded=0;" parent="1" vertex="1">
                    <mxGeometry x="1300" y="1190" width="160" height="30" as="geometry"/>
                </mxCell>
                <mxCell id="83" value="IF: No" style="ellipse;whiteSpace=wrap;html=1;align=center;" parent="1" vertex="1">
                    <mxGeometry x="1320" y="1330" width="100" height="40" as="geometry"/>
                </mxCell>
                <mxCell id="84" value="IF: Yes" style="ellipse;whiteSpace=wrap;html=1;align=center;" parent="1" vertex="1">
                    <mxGeometry x="1140" y="1330" width="100" height="40" as="geometry"/>
                </mxCell>
                <mxCell id="86" value="" style="endArrow=classic;html=1;entryX=0.985;entryY=0.634;entryDx=0;entryDy=0;entryPerimeter=0;exitX=0.5;exitY=1;exitDx=0;exitDy=0;" parent="1" source="155" target="12" edge="1">
                    <mxGeometry width="50" height="50" relative="1" as="geometry">
                        <mxPoint x="1380" y="1530" as="sourcePoint"/>
                        <mxPoint x="970" y="1773.3333333333333" as="targetPoint"/>
                        <Array as="points">
                            <mxPoint x="1371" y="2640"/>
                        </Array>
                    </mxGeometry>
                </mxCell>
                <mxCell id="88" value="" style="endArrow=classic;html=1;exitX=0.5;exitY=1;exitDx=0;exitDy=0;entryX=0.5;entryY=0;entryDx=0;entryDy=0;" parent="1" source="63" target="84" edge="1">
                    <mxGeometry width="50" height="50" relative="1" as="geometry">
                        <mxPoint x="1290" y="1170" as="sourcePoint"/>
                        <mxPoint x="1290" y="1240" as="targetPoint"/>
                    </mxGeometry>
                </mxCell>
                <mxCell id="89" value="" style="endArrow=classic;html=1;exitX=0.5;exitY=1;exitDx=0;exitDy=0;entryX=0.5;entryY=0;entryDx=0;entryDy=0;" parent="1" source="63" target="83" edge="1">
                    <mxGeometry width="50" height="50" relative="1" as="geometry">
                        <mxPoint x="1290" y="1280" as="sourcePoint"/>
                        <mxPoint x="1200" y="1340" as="targetPoint"/>
                    </mxGeometry>
                </mxCell>
                <mxCell id="90" value="" style="endArrow=classic;html=1;exitX=0;exitY=0.5;exitDx=0;exitDy=0;entryX=1;entryY=0.5;entryDx=0;entryDy=0;" parent="1" source="84" target="69" edge="1">
                    <mxGeometry width="50" height="50" relative="1" as="geometry">
                        <mxPoint x="870" y="1390" as="sourcePoint"/>
                        <mxPoint x="920" y="1340" as="targetPoint"/>
                    </mxGeometry>
                </mxCell>
                <mxCell id="91" value="IF: Money &amp;gt; 0" style="ellipse;whiteSpace=wrap;html=1;align=center;" parent="1" vertex="1">
                    <mxGeometry x="620" y="1340" width="100" height="40" as="geometry"/>
                </mxCell>
                <mxCell id="92" value="ELSE" style="ellipse;whiteSpace=wrap;html=1;align=center;" parent="1" vertex="1">
                    <mxGeometry x="780" y="1340" width="100" height="40" as="geometry"/>
                </mxCell>
                <mxCell id="93" value="Bettting()" style="whiteSpace=wrap;html=1;align=center;" parent="1" vertex="1">
                    <mxGeometry x="620" y="1430" width="100" height="40" as="geometry"/>
                </mxCell>
                <mxCell id="94" value="GameDetails()" style="whiteSpace=wrap;html=1;align=center;" parent="1" vertex="1">
                    <mxGeometry x="690" y="1530" width="100" height="40" as="geometry"/>
                </mxCell>
                <mxCell id="95" value="" style="endArrow=classic;html=1;exitX=0.5;exitY=1;exitDx=0;exitDy=0;entryX=0.5;entryY=0;entryDx=0;entryDy=0;" parent="1" source="70" target="91" edge="1">
                    <mxGeometry width="50" height="50" relative="1" as="geometry">
                        <mxPoint x="524" y="1280" as="sourcePoint"/>
                        <mxPoint x="520" y="1340" as="targetPoint"/>
                    </mxGeometry>
                </mxCell>
                <mxCell id="96" value="" style="endArrow=classic;html=1;exitX=0.5;exitY=1;exitDx=0;exitDy=0;entryX=0.5;entryY=0;entryDx=0;entryDy=0;" parent="1" source="70" target="92" edge="1">
                    <mxGeometry width="50" height="50" relative="1" as="geometry">
                        <mxPoint x="750" y="1280" as="sourcePoint"/>
                        <mxPoint x="680" y="1350" as="targetPoint"/>
                    </mxGeometry>
                </mxCell>
                <mxCell id="97" value="" style="endArrow=classic;html=1;exitX=0.5;exitY=1;exitDx=0;exitDy=0;entryX=0.5;entryY=0;entryDx=0;entryDy=0;" parent="1" source="91" target="93" edge="1">
                    <mxGeometry width="50" height="50" relative="1" as="geometry">
                        <mxPoint x="760" y="1290" as="sourcePoint"/>
                        <mxPoint x="690" y="1360" as="targetPoint"/>
                    </mxGeometry>
                </mxCell>
                <mxCell id="98" value="" style="endArrow=classic;html=1;exitX=0.5;exitY=1;exitDx=0;exitDy=0;entryX=0.5;entryY=0;entryDx=0;entryDy=0;" parent="1" source="92" target="94" edge="1">
                    <mxGeometry width="50" height="50" relative="1" as="geometry">
                        <mxPoint x="680" y="1390" as="sourcePoint"/>
                        <mxPoint x="680" y="1440" as="targetPoint"/>
                    </mxGeometry>
                </mxCell>
                <mxCell id="100" value="" style="endArrow=classic;html=1;exitX=0.5;exitY=1;exitDx=0;exitDy=0;entryX=0.5;entryY=0;entryDx=0;entryDy=0;" parent="1" source="94" edge="1" target="101">
                    <mxGeometry width="50" height="50" relative="1" as="geometry">
                        <mxPoint x="680" y="1390" as="sourcePoint"/>
                        <mxPoint x="740" y="1650" as="targetPoint"/>
                    </mxGeometry>
                </mxCell>
                <mxCell id="101" value="WHILE: String1 != String2&amp;nbsp;" style="ellipse;whiteSpace=wrap;html=1;align=center;" parent="1" vertex="1">
                    <mxGeometry x="690" y="1660" width="100" height="40" as="geometry"/>
                </mxCell>
                <mxCell id="102" value="String1 = Hangman&lt;br&gt;String2 = _ _ _ _ _ _ _" style="text;html=1;strokeColor=none;fillColor=none;align=left;verticalAlign=middle;whiteSpace=wrap;rounded=0;" parent="1" vertex="1">
                    <mxGeometry x="760" y="1723.5" width="160" height="30" as="geometry"/>
                </mxCell>
                <mxCell id="103" value="" style="endArrow=classic;html=1;exitX=0.5;exitY=1;exitDx=0;exitDy=0;entryX=0.5;entryY=0;entryDx=0;entryDy=0;" parent="1" source="101" target="105" edge="1">
                    <mxGeometry width="50" height="50" relative="1" as="geometry">
                        <mxPoint x="844" y="1690" as="sourcePoint"/>
                        <mxPoint x="970" y="1800" as="targetPoint"/>
                    </mxGeometry>
                </mxCell>
                <mxCell id="105" value="UserGuess()" style="whiteSpace=wrap;html=1;align=center;" parent="1" vertex="1">
                    <mxGeometry x="690" y="1784" width="100" height="40" as="geometry"/>
                </mxCell>
                <mxCell id="107" value="IF: GuessedLetters cointans guess&amp;nbsp;" style="ellipse;whiteSpace=wrap;html=1;align=center;" parent="1" vertex="1">
                    <mxGeometry x="820" y="1920" width="100" height="40" as="geometry"/>
                </mxCell>
                <mxCell id="108" value="ELSE" style="ellipse;whiteSpace=wrap;html=1;align=center;" parent="1" vertex="1">
                    <mxGeometry x="997" y="1920" width="100" height="40" as="geometry"/>
                </mxCell>
                <mxCell id="109" value="&lt;div style=&quot;text-align: left;&quot;&gt;&lt;span style=&quot;text-align: center; background-color: initial;&quot;&gt;guess (user input) = B (ex)&lt;br&gt;GuessedLetters (array of already guessed letters) =&amp;nbsp; [A B C G R ]&lt;/span&gt;&lt;/div&gt;" style="text;html=1;strokeColor=none;fillColor=none;align=left;verticalAlign=middle;whiteSpace=wrap;rounded=0;" parent="1" vertex="1">
                    <mxGeometry x="810" y="1784" width="370" height="30" as="geometry"/>
                </mxCell>
                <mxCell id="112" value="" style="endArrow=classic;html=1;exitX=0;exitY=0;exitDx=0;exitDy=0;entryX=0.5;entryY=1;entryDx=0;entryDy=0;" parent="1" source="107" target="105" edge="1">
                    <mxGeometry width="50" height="50" relative="1" as="geometry">
                        <mxPoint x="1000" y="1610" as="sourcePoint"/>
                        <mxPoint x="740" y="1830" as="targetPoint"/>
                    </mxGeometry>
                </mxCell>
                <mxCell id="114" value="IF: guess contains String1" style="ellipse;whiteSpace=wrap;html=1;align=center;" parent="1" vertex="1">
                    <mxGeometry x="906" y="2030" width="100" height="40" as="geometry"/>
                </mxCell>
                <mxCell id="115" value="ELSE" style="ellipse;whiteSpace=wrap;html=1;align=center;" parent="1" vertex="1">
                    <mxGeometry x="1096" y="2030" width="100" height="40" as="geometry"/>
                </mxCell>
                <mxCell id="117" value="CorrectGuess()" style="whiteSpace=wrap;html=1;align=center;" parent="1" vertex="1">
                    <mxGeometry x="906" y="2160" width="100" height="40" as="geometry"/>
                </mxCell>
                <mxCell id="118" value="" style="endArrow=classic;html=1;exitX=0.5;exitY=1;exitDx=0;exitDy=0;entryX=0.5;entryY=0;entryDx=0;entryDy=0;startArrow=none;" parent="1" source="123" target="117" edge="1">
                    <mxGeometry width="50" height="50" relative="1" as="geometry">
                        <mxPoint x="976" y="1853" as="sourcePoint"/>
                        <mxPoint x="916.2068965517142" y="1916.2068965517278" as="targetPoint"/>
                    </mxGeometry>
                </mxCell>
                <mxCell id="119" value="" style="endArrow=classic;html=1;exitX=0.5;exitY=1;exitDx=0;exitDy=0;" parent="1" source="115" edge="1">
                    <mxGeometry width="50" height="50" relative="1" as="geometry">
                        <mxPoint x="966" y="2080" as="sourcePoint"/>
                        <mxPoint x="1146" y="2160" as="targetPoint"/>
                    </mxGeometry>
                </mxCell>
                <mxCell id="120" value="WrongGuess()" style="whiteSpace=wrap;html=1;align=center;" parent="1" vertex="1">
                    <mxGeometry x="1097" y="2160" width="100" height="40" as="geometry"/>
                </mxCell>
                <mxCell id="121" value="" style="endArrow=classic;html=1;exitX=0.5;exitY=1;exitDx=0;exitDy=0;" parent="1" source="108" edge="1">
                    <mxGeometry width="50" height="50" relative="1" as="geometry">
                        <mxPoint x="1014" y="2020" as="sourcePoint"/>
                        <mxPoint x="1050" y="2050" as="targetPoint"/>
                    </mxGeometry>
                </mxCell>
                <mxCell id="122" value="" style="endArrow=none;html=1;exitX=1;exitY=0.5;exitDx=0;exitDy=0;entryX=0;entryY=0.5;entryDx=0;entryDy=0;" parent="1" source="114" target="115" edge="1">
                    <mxGeometry width="50" height="50" relative="1" as="geometry">
                        <mxPoint x="1004" y="2080" as="sourcePoint"/>
                        <mxPoint x="1054" y="2030" as="targetPoint"/>
                    </mxGeometry>
                </mxCell>
                <mxCell id="125" value="&lt;div style=&quot;text-align: center;&quot;&gt;Return; updated version of&amp;nbsp;&lt;/div&gt;&lt;span style=&quot;text-align: center;&quot;&gt;GuessedLetters and -1 Life&lt;/span&gt;" style="text;html=1;strokeColor=none;fillColor=none;align=left;verticalAlign=middle;whiteSpace=wrap;rounded=0;" parent="1" vertex="1">
                    <mxGeometry x="1070" y="2100" width="160" height="30" as="geometry"/>
                </mxCell>
                <mxCell id="127" value="IF: String1 == String2&amp;nbsp;" style="ellipse;whiteSpace=wrap;html=1;align=center;" parent="1" vertex="1">
                    <mxGeometry x="580" y="1920" width="100" height="40" as="geometry"/>
                </mxCell>
                <mxCell id="128" value="ELSE IF (LIVES == 0)" style="ellipse;whiteSpace=wrap;html=1;align=center;" parent="1" vertex="1">
                    <mxGeometry x="410" y="1920" width="100" height="40" as="geometry"/>
                </mxCell>
                <mxCell id="129" value="GameOver()" style="whiteSpace=wrap;html=1;align=center;" parent="1" vertex="1">
                    <mxGeometry x="410" y="2030" width="100" height="40" as="geometry"/>
                </mxCell>
                <mxCell id="130" value="" style="endArrow=classic;html=1;exitX=0.5;exitY=1;exitDx=0;exitDy=0;entryX=0.5;entryY=0;entryDx=0;entryDy=0;" parent="1" source="128" target="129" edge="1">
                    <mxGeometry width="50" height="50" relative="1" as="geometry">
                        <mxPoint x="750" y="1700" as="sourcePoint"/>
                        <mxPoint x="750" y="1794" as="targetPoint"/>
                    </mxGeometry>
                </mxCell>
                <mxCell id="134" value="" style="endArrow=classic;html=1;entryX=0.5;entryY=0;entryDx=0;entryDy=0;" parent="1" target="127" edge="1">
                    <mxGeometry width="50" height="50" relative="1" as="geometry">
                        <mxPoint x="540" y="1870" as="sourcePoint"/>
                        <mxPoint x="750" y="1794" as="targetPoint"/>
                    </mxGeometry>
                </mxCell>
                <mxCell id="135" value="" style="endArrow=classic;html=1;entryX=0.5;entryY=0;entryDx=0;entryDy=0;" parent="1" target="128" edge="1">
                    <mxGeometry width="50" height="50" relative="1" as="geometry">
                        <mxPoint x="540" y="1870" as="sourcePoint"/>
                        <mxPoint x="640" y="1930" as="targetPoint"/>
                    </mxGeometry>
                </mxCell>
                <mxCell id="136" value="" style="endArrow=classic;html=1;entryX=1;entryY=0;entryDx=0;entryDy=0;" parent="1" target="107" edge="1">
                    <mxGeometry width="50" height="50" relative="1" as="geometry">
                        <mxPoint x="940" y="1880" as="sourcePoint"/>
                        <mxPoint x="640" y="1930" as="targetPoint"/>
                    </mxGeometry>
                </mxCell>
                <mxCell id="138" value="" style="endArrow=classic;html=1;entryX=0;entryY=0;entryDx=0;entryDy=0;" parent="1" target="108" edge="1">
                    <mxGeometry width="50" height="50" relative="1" as="geometry">
                        <mxPoint x="940" y="1880" as="sourcePoint"/>
                        <mxPoint x="1043.75" y="1912.5" as="targetPoint"/>
                    </mxGeometry>
                </mxCell>
                <mxCell id="139" value="Winning()&lt;br&gt;break;" style="whiteSpace=wrap;html=1;align=center;" parent="1" vertex="1">
                    <mxGeometry x="580" y="2030" width="100" height="40" as="geometry"/>
                </mxCell>
                <mxCell id="140" value="" style="endArrow=classic;html=1;exitX=0.5;exitY=1;exitDx=0;exitDy=0;entryX=0.5;entryY=0;entryDx=0;entryDy=0;" parent="1" source="127" target="139" edge="1">
                    <mxGeometry width="50" height="50" relative="1" as="geometry">
                        <mxPoint x="470" y="1970" as="sourcePoint"/>
                        <mxPoint x="470" y="2040" as="targetPoint"/>
                    </mxGeometry>
                </mxCell>
                <mxCell id="141" value="" style="endArrow=none;html=1;exitX=0.5;exitY=1;exitDx=0;exitDy=0;entryX=0.5;entryY=0;entryDx=0;entryDy=0;" parent="1" source="114" target="123" edge="1">
                    <mxGeometry width="50" height="50" relative="1" as="geometry">
                        <mxPoint x="956" y="2070" as="sourcePoint"/>
                        <mxPoint x="956" y="2160" as="targetPoint"/>
                    </mxGeometry>
                </mxCell>
                <mxCell id="123" value="&lt;div style=&quot;text-align: center;&quot;&gt;Return; updated version of&amp;nbsp;&lt;/div&gt;&lt;span style=&quot;text-align: center;&quot;&gt;GuessedLetters and String2&lt;/span&gt;" style="text;html=1;strokeColor=none;fillColor=none;align=left;verticalAlign=middle;whiteSpace=wrap;rounded=0;" parent="1" vertex="1">
                    <mxGeometry x="876" y="2100" width="160" height="30" as="geometry"/>
                </mxCell>
                <mxCell id="142" value="" style="endArrow=classic;html=1;exitX=0;exitY=0.5;exitDx=0;exitDy=0;entryX=0.5;entryY=1;entryDx=0;entryDy=0;" parent="1" source="117" target="105" edge="1">
                    <mxGeometry width="50" height="50" relative="1" as="geometry">
                        <mxPoint x="810" y="2050" as="sourcePoint"/>
                        <mxPoint x="860" y="2000" as="targetPoint"/>
                        <Array as="points">
                            <mxPoint x="740" y="2180"/>
                        </Array>
                    </mxGeometry>
                </mxCell>
                <mxCell id="143" value="" style="endArrow=classic;html=1;exitX=0.5;exitY=1;exitDx=0;exitDy=0;entryX=0.5;entryY=1;entryDx=0;entryDy=0;" parent="1" edge="1">
                    <mxGeometry width="50" height="50" relative="1" as="geometry">
                        <mxPoint x="1146" y="2200" as="sourcePoint"/>
                        <mxPoint x="739" y="1824.0000000000002" as="targetPoint"/>
                        <Array as="points">
                            <mxPoint x="1140" y="2230"/>
                            <mxPoint x="739" y="2230"/>
                        </Array>
                    </mxGeometry>
                </mxCell>
                <mxCell id="144" value="IF: Money == 0" style="ellipse;whiteSpace=wrap;html=1;align=center;" parent="1" vertex="1">
                    <mxGeometry x="180" y="2150" width="100" height="40" as="geometry"/>
                </mxCell>
                <mxCell id="145" value="" style="endArrow=classic;html=1;exitX=0.25;exitY=1;exitDx=0;exitDy=0;entryX=0.5;entryY=0;entryDx=0;entryDy=0;" parent="1" source="129" target="144" edge="1">
                    <mxGeometry width="50" height="50" relative="1" as="geometry">
                        <mxPoint x="725" y="1834" as="sourcePoint"/>
                        <mxPoint x="585" y="1885" as="targetPoint"/>
                    </mxGeometry>
                </mxCell>
                <mxCell id="146" value="" style="endArrow=classic;html=1;exitX=0.5;exitY=0;exitDx=0;exitDy=0;entryX=0;entryY=0.5;entryDx=0;entryDy=0;" parent="1" source="144" target="62" edge="1">
                    <mxGeometry width="50" height="50" relative="1" as="geometry">
                        <mxPoint x="445" y="2080" as="sourcePoint"/>
                        <mxPoint x="350" y="1240" as="targetPoint"/>
                        <Array as="points">
                            <mxPoint x="230" y="1250"/>
                        </Array>
                    </mxGeometry>
                </mxCell>
                <mxCell id="148" value="BuyMoreLives" style="whiteSpace=wrap;html=1;align=center;" parent="1" vertex="1">
                    <mxGeometry x="410" y="2250" width="100" height="40" as="geometry"/>
                </mxCell>
                <mxCell id="150" value="ELSE" style="ellipse;whiteSpace=wrap;html=1;align=center;" parent="1" vertex="1">
                    <mxGeometry x="410" y="2150" width="100" height="40" as="geometry"/>
                </mxCell>
                <mxCell id="151" value="IF: Yes" style="ellipse;whiteSpace=wrap;html=1;align=center;" parent="1" vertex="1">
                    <mxGeometry x="330" y="2360" width="100" height="40" as="geometry"/>
                </mxCell>
                <mxCell id="152" value="IF: No" style="ellipse;whiteSpace=wrap;html=1;align=center;" parent="1" vertex="1">
                    <mxGeometry x="480" y="2360" width="100" height="40" as="geometry"/>
                </mxCell>
                <mxCell id="153" value="ExitApp()" style="whiteSpace=wrap;html=1;align=center;" parent="1" vertex="1">
                    <mxGeometry x="480" y="2480" width="100" height="40" as="geometry"/>
                </mxCell>
                <mxCell id="154" value="GetMoreLives()" style="whiteSpace=wrap;html=1;align=center;" parent="1" vertex="1">
                    <mxGeometry x="330" y="2480" width="100" height="40" as="geometry"/>
                </mxCell>
                <mxCell id="155" value="ExitApp()" style="whiteSpace=wrap;html=1;align=center;" parent="1" vertex="1">
                    <mxGeometry x="1321" y="1450" width="100" height="40" as="geometry"/>
                </mxCell>
                <mxCell id="156" value="" style="endArrow=classic;html=1;exitX=0.5;exitY=1;exitDx=0;exitDy=0;entryX=0.5;entryY=0;entryDx=0;entryDy=0;" parent="1" source="83" target="155" edge="1">
                    <mxGeometry width="50" height="50" relative="1" as="geometry">
                        <mxPoint x="1290" y="1280" as="sourcePoint"/>
                        <mxPoint x="1380" y="1340" as="targetPoint"/>
                    </mxGeometry>
                </mxCell>
                <mxCell id="158" value="" style="endArrow=classic;html=1;exitX=0.5;exitY=1;exitDx=0;exitDy=0;entryX=0.5;entryY=0;entryDx=0;entryDy=0;" parent="1" source="129" target="150" edge="1">
                    <mxGeometry width="50" height="50" relative="1" as="geometry">
                        <mxPoint x="470" y="1970" as="sourcePoint"/>
                        <mxPoint x="470" y="2040" as="targetPoint"/>
                    </mxGeometry>
                </mxCell>
                <mxCell id="159" value="" style="endArrow=classic;html=1;exitX=0.5;exitY=1;exitDx=0;exitDy=0;entryX=0.5;entryY=0;entryDx=0;entryDy=0;" parent="1" source="150" target="148" edge="1">
                    <mxGeometry width="50" height="50" relative="1" as="geometry">
                        <mxPoint x="470" y="2080" as="sourcePoint"/>
                        <mxPoint x="470" y="2160" as="targetPoint"/>
                    </mxGeometry>
                </mxCell>
                <mxCell id="160" value="" style="endArrow=classic;html=1;exitX=0.5;exitY=1;exitDx=0;exitDy=0;entryX=0.5;entryY=0;entryDx=0;entryDy=0;" parent="1" source="148" target="151" edge="1">
                    <mxGeometry width="50" height="50" relative="1" as="geometry">
                        <mxPoint x="470" y="2200" as="sourcePoint"/>
                        <mxPoint x="470" y="2260" as="targetPoint"/>
                    </mxGeometry>
                </mxCell>
                <mxCell id="161" value="" style="endArrow=classic;html=1;exitX=0.5;exitY=1;exitDx=0;exitDy=0;entryX=0.5;entryY=0;entryDx=0;entryDy=0;" parent="1" source="148" target="152" edge="1">
                    <mxGeometry width="50" height="50" relative="1" as="geometry">
                        <mxPoint x="470" y="2300" as="sourcePoint"/>
                        <mxPoint x="370" y="2370" as="targetPoint"/>
                    </mxGeometry>
                </mxCell>
                <mxCell id="162" value="" style="endArrow=classic;html=1;exitX=0.5;exitY=1;exitDx=0;exitDy=0;" parent="1" source="151" target="154" edge="1">
                    <mxGeometry width="50" height="50" relative="1" as="geometry">
                        <mxPoint x="500" y="2310" as="sourcePoint"/>
                        <mxPoint x="400" y="2380" as="targetPoint"/>
                    </mxGeometry>
                </mxCell>
                <mxCell id="163" value="" style="endArrow=classic;html=1;exitX=0.5;exitY=1;exitDx=0;exitDy=0;entryX=0.5;entryY=0;entryDx=0;entryDy=0;" parent="1" source="152" target="153" edge="1">
                    <mxGeometry width="50" height="50" relative="1" as="geometry">
                        <mxPoint x="340" y="2410" as="sourcePoint"/>
                        <mxPoint x="340" y="2490" as="targetPoint"/>
                    </mxGeometry>
                </mxCell>
                <mxCell id="164" value="" style="endArrow=classic;html=1;exitX=0.5;exitY=1;exitDx=0;exitDy=0;entryX=0.5;entryY=0;entryDx=0;entryDy=0;" parent="1" source="153" target="12" edge="1">
                    <mxGeometry width="50" height="50" relative="1" as="geometry">
                        <mxPoint x="570" y="2410" as="sourcePoint"/>
                        <mxPoint x="570" y="2490" as="targetPoint"/>
                    </mxGeometry>
                </mxCell>
                <mxCell id="165" value="" style="endArrow=classic;html=1;exitX=0.5;exitY=1;exitDx=0;exitDy=0;entryX=0;entryY=0.5;entryDx=0;entryDy=0;" parent="1" source="154" target="105" edge="1">
                    <mxGeometry width="50" height="50" relative="1" as="geometry">
                        <mxPoint x="470" y="2300" as="sourcePoint"/>
                        <mxPoint x="330" y="2070" as="targetPoint"/>
                        <Array as="points">
                            <mxPoint x="380" y="2560"/>
                            <mxPoint x="320" y="2560"/>
                            <mxPoint x="320" y="1804"/>
                        </Array>
                    </mxGeometry>
                </mxCell>
                <mxCell id="167" value="ExitApp()" style="whiteSpace=wrap;html=1;align=center;" parent="1" vertex="1">
                    <mxGeometry x="1230" y="408" width="100" height="40" as="geometry"/>
                </mxCell>
                <mxCell id="168" value="" style="endArrow=classic;html=1;exitX=0.5;exitY=1;exitDx=0;exitDy=0;" parent="1" source="10" target="167" edge="1">
                    <mxGeometry width="50" height="50" relative="1" as="geometry">
                        <mxPoint x="1150" y="368" as="sourcePoint"/>
                        <mxPoint x="1150" y="418" as="targetPoint"/>
                    </mxGeometry>
                </mxCell>
                <mxCell id="170" value="" style="endArrow=none;html=1;rounded=0;exitX=0.5;exitY=1;exitDx=0;exitDy=0;" edge="1" parent="1" source="4">
                    <mxGeometry relative="1" as="geometry">
                        <mxPoint x="1010" y="420" as="sourcePoint"/>
                        <mxPoint x="1010" y="290" as="targetPoint"/>
                    </mxGeometry>
                </mxCell>
                <mxCell id="171" value="" style="endArrow=none;html=1;rounded=0;" edge="1" parent="1">
                    <mxGeometry relative="1" as="geometry">
                        <mxPoint x="740" y="290" as="sourcePoint"/>
                        <mxPoint x="1280" y="290" as="targetPoint"/>
                    </mxGeometry>
                </mxCell>
                <mxCell id="172" value="" style="endArrow=classic;html=1;entryX=0.5;entryY=0;entryDx=0;entryDy=0;" edge="1" parent="1" target="6">
                    <mxGeometry width="50" height="50" relative="1" as="geometry">
                        <mxPoint x="740" y="290" as="sourcePoint"/>
                        <mxPoint x="890" y="418" as="targetPoint"/>
                    </mxGeometry>
                </mxCell>
                <mxCell id="173" value="" style="endArrow=classic;html=1;entryX=0.5;entryY=0;entryDx=0;entryDy=0;" edge="1" parent="1">
                    <mxGeometry width="50" height="50" relative="1" as="geometry">
                        <mxPoint x="880" y="290" as="sourcePoint"/>
                        <mxPoint x="880" y="318" as="targetPoint"/>
                    </mxGeometry>
                </mxCell>
                <mxCell id="174" value="" style="endArrow=classic;html=1;entryX=0.5;entryY=0;entryDx=0;entryDy=0;" edge="1" parent="1">
                    <mxGeometry width="50" height="50" relative="1" as="geometry">
                        <mxPoint x="1009.81" y="290" as="sourcePoint"/>
                        <mxPoint x="1009.81" y="318" as="targetPoint"/>
                    </mxGeometry>
                </mxCell>
                <mxCell id="176" value="" style="endArrow=classic;html=1;entryX=0.5;entryY=0;entryDx=0;entryDy=0;" edge="1" parent="1">
                    <mxGeometry width="50" height="50" relative="1" as="geometry">
                        <mxPoint x="1139.62" y="290" as="sourcePoint"/>
                        <mxPoint x="1139.62" y="318" as="targetPoint"/>
                    </mxGeometry>
                </mxCell>
                <mxCell id="177" value="" style="endArrow=classic;html=1;entryX=0.5;entryY=0;entryDx=0;entryDy=0;" edge="1" parent="1">
                    <mxGeometry width="50" height="50" relative="1" as="geometry">
                        <mxPoint x="1279.81" y="290" as="sourcePoint"/>
                        <mxPoint x="1279.81" y="318" as="targetPoint"/>
                    </mxGeometry>
                </mxCell>
                <mxCell id="178" value="" style="endArrow=classic;html=1;entryX=1;entryY=1;entryDx=0;entryDy=0;exitX=1;exitY=0.5;exitDx=0;exitDy=0;" edge="1" parent="1" source="13" target="4">
                    <mxGeometry width="50" height="50" relative="1" as="geometry">
                        <mxPoint x="1020" y="368" as="sourcePoint"/>
                        <mxPoint x="1020" y="418" as="targetPoint"/>
                        <Array as="points">
                            <mxPoint x="1080" y="340"/>
                        </Array>
                    </mxGeometry>
                </mxCell>
                <mxCell id="180" value="" style="endArrow=classic;html=1;exitX=1;exitY=0.5;exitDx=0;exitDy=0;entryX=1;entryY=0.75;entryDx=0;entryDy=0;" edge="1" parent="1" target="4">
                    <mxGeometry width="50" height="50" relative="1" as="geometry">
                        <mxPoint x="1190" y="427" as="sourcePoint"/>
                        <mxPoint x="1190" y="249" as="targetPoint"/>
                        <Array as="points">
                            <mxPoint x="1210" y="310"/>
                        </Array>
                    </mxGeometry>
                </mxCell>
                <mxCell id="182" value="" style="endArrow=classic;html=1;entryX=0;entryY=1;entryDx=0;entryDy=0;exitX=1.011;exitY=0.467;exitDx=0;exitDy=0;exitPerimeter=0;" edge="1" parent="1" source="25" target="4">
                    <mxGeometry width="50" height="50" relative="1" as="geometry">
                        <mxPoint x="930" y="428" as="sourcePoint"/>
                        <mxPoint x="930" y="250" as="targetPoint"/>
                        <Array as="points">
                            <mxPoint x="940" y="490"/>
                        </Array>
                    </mxGeometry>
                </mxCell>
                <mxCell id="183" value="if the selected user has no lives or money&amp;nbsp;" style="text;html=1;strokeColor=none;fillColor=none;align=center;verticalAlign=middle;whiteSpace=wrap;rounded=0;" vertex="1" parent="1">
                    <mxGeometry x="380" y="1060" width="110" height="30" as="geometry"/>
                </mxCell>
                <mxCell id="188" value="if the selected user has no lives BUT has money&amp;nbsp;" style="text;html=1;strokeColor=none;fillColor=none;align=center;verticalAlign=middle;whiteSpace=wrap;rounded=0;" vertex="1" parent="1">
                    <mxGeometry x="1120" y="1030" width="110" height="30" as="geometry"/>
                </mxCell>
                <mxCell id="189" value="If user still has money - offer betting" style="text;html=1;strokeColor=none;fillColor=none;align=center;verticalAlign=middle;whiteSpace=wrap;rounded=0;" vertex="1" parent="1">
                    <mxGeometry x="602.5" y="1390" width="135" height="20" as="geometry"/>
                </mxCell>
                <mxCell id="190" value="" style="endArrow=classic;html=1;exitX=0.5;exitY=1;exitDx=0;exitDy=0;entryX=0.5;entryY=0;entryDx=0;entryDy=0;" edge="1" parent="1" source="93" target="94">
                    <mxGeometry width="50" height="50" relative="1" as="geometry">
                        <mxPoint x="680" y="1390" as="sourcePoint"/>
                        <mxPoint x="680" y="1440" as="targetPoint"/>
                    </mxGeometry>
                </mxCell>
                <mxCell id="191" value="Showing the user the details: Level, category, money, bettings, etc." style="text;html=1;strokeColor=none;fillColor=none;align=left;verticalAlign=middle;whiteSpace=wrap;rounded=0;" vertex="1" parent="1">
                    <mxGeometry x="800" y="1535" width="160" height="30" as="geometry"/>
                </mxCell>
                <mxCell id="192" value="&lt;div style=&quot;&quot;&gt;gives user opportunity to buy more lives&lt;/div&gt;" style="text;html=1;strokeColor=none;fillColor=none;align=left;verticalAlign=middle;whiteSpace=wrap;rounded=0;" vertex="1" parent="1">
                    <mxGeometry x="526" y="2255" width="114" height="30" as="geometry"/>
                </mxCell>
                <mxCell id="195" value="" style="endArrow=none;html=1;rounded=0;entryX=0.5;entryY=1;entryDx=0;entryDy=0;" edge="1" parent="1" target="105">
                    <mxGeometry relative="1" as="geometry">
                        <mxPoint x="540" y="1870" as="sourcePoint"/>
                        <mxPoint x="730" y="1890" as="targetPoint"/>
                    </mxGeometry>
                </mxCell>
                <mxCell id="196" value="" style="endArrow=none;html=1;rounded=0;entryX=0.5;entryY=1;entryDx=0;entryDy=0;" edge="1" parent="1" target="105">
                    <mxGeometry relative="1" as="geometry">
                        <mxPoint x="940" y="1880" as="sourcePoint"/>
                        <mxPoint x="750" y="1870" as="targetPoint"/>
                    </mxGeometry>
                </mxCell>
            </root>
        </mxGraphModel>
    </diagram>
</mxfile>